<?xml version="1.0" encoding="UTF-8"?>
<svg xmlns="http://www.w3.org/2000/svg" xmlns:xlink="http://www.w3.org/1999/xlink" width="180px" height="25px" viewBox="0 0 180 25" version="1.1">
<g id="surface1">
<path style=" stroke:none;fill-rule:nonzero;fill:rgb(52.156863%,26.27451%,49.803922%);fill-opacity:1;" d="M 0 19.25 L 9.824219 24.925781 L 9.824219 20.03125 L 4.234375 16.808594 L 4.234375 10.339844 L 2.71875 9.46875 L 0 7.898438 Z M 0 19.25 "/>
<path style=" stroke:none;fill-rule:nonzero;fill:rgb(47.058824%,14.117647%,44.313725%);fill-opacity:1;" d="M 19.5 9.46875 L 18 10.339844 L 18 16.808594 L 12.398438 20.03125 L 12.398438 24.910156 L 22.21875 19.25 L 22.21875 7.898438 Z M 19.5 9.46875 "/>
<path style=" stroke:none;fill-rule:nonzero;fill:rgb(56.078431%,33.72549%,54.117647%);fill-opacity:1;" d="M 11.117188 0 L 1.292969 5.675781 L 4.015625 7.25 L 5.515625 8.117188 L 11.117188 4.882812 L 16.707031 8.117188 L 18.207031 7.25 L 20.941406 5.675781 Z M 11.117188 0 "/>
<path style=" stroke:none;fill-rule:nonzero;fill:rgb(47.058824%,14.117647%,44.313725%);fill-opacity:1;" d="M 11.117188 12.839844 L 11.117188 18.207031 L 15.765625 15.515625 L 15.765625 10.148438 Z M 11.117188 12.839844 "/>
<path style=" stroke:none;fill-rule:nonzero;fill:rgb(52.156863%,26.27451%,49.803922%);fill-opacity:1;" d="M 6.457031 15.515625 L 11.101562 18.207031 L 11.101562 12.839844 L 6.457031 10.148438 Z M 6.457031 15.515625 "/>
<path style=" stroke:none;fill-rule:nonzero;fill:rgb(56.078431%,33.72549%,54.117647%);fill-opacity:1;" d="M 11.117188 7.457031 L 6.457031 10.148438 L 11.117188 12.824219 L 15.765625 10.148438 Z M 11.117188 7.457031 "/>
<path style=" stroke:none;fill-rule:nonzero;fill:rgb(34.117647%,7.843137%,34.901961%);fill-opacity:1;" d="M 35.882812 3.453125 C 35.882812 3.988281 35.757812 4.378906 35.515625 4.621094 C 35.285156 4.851562 34.902344 4.96875 34.367188 4.96875 C 33.832031 4.96875 33.441406 4.851562 33.195312 4.621094 C 32.96875 4.378906 32.851562 3.988281 32.851562 3.453125 C 32.851562 2.917969 32.96875 2.535156 33.195312 2.304688 C 33.441406 2.0625 33.832031 1.9375 34.367188 1.9375 C 34.902344 1.9375 35.285156 2.0625 35.515625 2.304688 C 35.757812 2.535156 35.882812 2.917969 35.882812 3.453125 Z M 29.824219 20.933594 C 30.039062 20.949219 30.261719 20.957031 30.488281 20.957031 C 30.703125 20.957031 30.964844 20.957031 31.269531 20.957031 C 31.636719 20.957031 31.933594 20.933594 32.164062 20.886719 C 32.410156 20.84375 32.609375 20.734375 32.761719 20.566406 C 32.914062 20.414062 33.019531 20.191406 33.082031 19.902344 C 33.144531 19.609375 33.175781 19.214844 33.175781 18.707031 L 33.175781 6.964844 L 35.582031 6.964844 L 35.582031 18.707031 C 35.582031 19.519531 35.507812 20.191406 35.355469 20.726562 C 35.199219 21.261719 34.957031 21.691406 34.621094 22.011719 C 34.28125 22.332031 33.847656 22.554688 33.3125 22.675781 C 32.777344 22.816406 32.117188 22.882812 31.339844 22.882812 C 30.757812 22.882812 30.320312 22.875 30.03125 22.859375 C 29.742188 22.859375 29.535156 22.855469 29.410156 22.839844 Z M 29.824219 20.933594 "/>
<path style=" stroke:none;fill-rule:nonzero;fill:rgb(34.117647%,7.843137%,34.901961%);fill-opacity:1;" d="M 40.371094 13.777344 C 40.371094 14.417969 40.402344 14.9375 40.460938 15.335938 C 40.539062 15.734375 40.675781 16.046875 40.875 16.277344 C 41.089844 16.507812 41.378906 16.667969 41.746094 16.757812 C 42.113281 16.835938 42.605469 16.875 43.214844 16.875 C 43.660156 16.875 44.21875 16.875 44.890625 16.875 C 45.578125 16.875 46.464844 16.859375 47.550781 16.828125 L 47.136719 18.824219 C 46.664062 18.839844 46.257812 18.847656 45.921875 18.847656 C 45.585938 18.863281 45.273438 18.871094 44.980469 18.871094 C 44.707031 18.871094 44.429688 18.871094 44.15625 18.871094 C 43.882812 18.871094 43.566406 18.871094 43.214844 18.871094 C 42.128906 18.871094 41.242188 18.746094 40.554688 18.503906 C 39.882812 18.242188 39.347656 17.882812 38.949219 17.425781 C 38.566406 16.949219 38.304688 16.382812 38.167969 15.726562 C 38.03125 15.054688 37.960938 14.3125 37.960938 13.5 L 37.960938 12.214844 C 37.960938 11.34375 38.03125 10.566406 38.167969 9.875 C 38.320312 9.171875 38.589844 8.585938 38.972656 8.109375 C 39.367188 7.621094 39.910156 7.246094 40.601562 6.984375 C 41.304688 6.726562 42.214844 6.597656 43.332031 6.597656 C 44.355469 6.597656 45.1875 6.71875 45.832031 6.964844 C 46.488281 7.191406 47 7.511719 47.367188 7.925781 C 47.75 8.324219 48.011719 8.789062 48.148438 9.324219 C 48.285156 9.847656 48.355469 10.390625 48.355469 10.953125 L 48.355469 11.296875 C 48.355469 11.847656 48.324219 12.285156 48.261719 12.605469 C 48.203125 12.925781 48.101562 13.179688 47.964844 13.363281 C 47.828125 13.53125 47.652344 13.644531 47.4375 13.707031 C 47.238281 13.753906 46.992188 13.777344 46.703125 13.777344 Z M 43.214844 8.5 C 42.605469 8.5 42.113281 8.546875 41.746094 8.636719 C 41.378906 8.730469 41.089844 8.90625 40.875 9.164062 C 40.675781 9.410156 40.539062 9.753906 40.460938 10.199219 C 40.402344 10.640625 40.371094 11.214844 40.371094 11.917969 L 46.082031 11.917969 L 46.082031 11.136719 C 46.082031 10.632812 46.039062 10.214844 45.945312 9.875 C 45.867188 9.523438 45.714844 9.25 45.488281 9.050781 C 45.273438 8.851562 44.980469 8.714844 44.613281 8.636719 C 44.246094 8.546875 43.78125 8.5 43.214844 8.5 Z M 43.214844 8.5 "/>
<path style=" stroke:none;fill-rule:nonzero;fill:rgb(34.117647%,7.843137%,34.901961%);fill-opacity:1;" d="M 50.695312 4.164062 L 53.101562 3.726562 L 53.101562 6.964844 L 57.460938 6.964844 L 57.046875 8.957031 L 53.101562 8.957031 L 53.101562 14.464844 C 53.101562 14.96875 53.125 15.382812 53.171875 15.703125 C 53.230469 16.023438 53.339844 16.269531 53.492188 16.4375 C 53.644531 16.605469 53.859375 16.71875 54.132812 16.78125 C 54.425781 16.84375 54.792969 16.875 55.234375 16.875 L 57.324219 16.875 L 56.910156 18.824219 L 55.257812 18.824219 C 54.339844 18.824219 53.585938 18.753906 52.988281 18.617188 C 52.40625 18.480469 51.941406 18.25 51.589844 17.929688 C 51.25 17.59375 51.015625 17.148438 50.878906 16.597656 C 50.753906 16.046875 50.695312 15.359375 50.695312 14.535156 Z M 50.695312 4.164062 "/>
<path style=" stroke:none;fill-rule:nonzero;fill:rgb(34.117647%,7.843137%,34.901961%);fill-opacity:1;" d="M 59.25 6.964844 L 61.660156 6.964844 L 61.660156 18.824219 L 59.25 18.824219 Z M 61.957031 3.453125 C 61.957031 3.988281 61.835938 4.378906 61.589844 4.621094 C 61.363281 4.851562 60.980469 4.96875 60.445312 4.96875 C 59.910156 4.96875 59.519531 4.851562 59.273438 4.621094 C 59.046875 4.378906 58.929688 3.988281 58.929688 3.453125 C 58.929688 2.917969 59.046875 2.535156 59.273438 2.304688 C 59.519531 2.0625 59.910156 1.9375 60.445312 1.9375 C 60.980469 1.9375 61.363281 2.0625 61.589844 2.304688 C 61.835938 2.535156 61.957031 2.917969 61.957031 3.453125 Z M 61.957031 3.453125 "/>
<path style=" stroke:none;fill-rule:nonzero;fill:rgb(34.117647%,7.843137%,34.901961%);fill-opacity:1;" d="M 69.570312 8.914062 C 68.941406 8.914062 68.429688 8.953125 68.03125 9.027344 C 67.632812 9.089844 67.320312 9.242188 67.089844 9.488281 C 66.863281 9.714844 66.699219 10.050781 66.609375 10.496094 C 66.53125 10.9375 66.496094 11.535156 66.496094 12.285156 L 66.496094 13.5 C 66.496094 14.25 66.539062 14.847656 66.632812 15.289062 C 66.722656 15.734375 66.882812 16.078125 67.113281 16.324219 C 67.359375 16.550781 67.679688 16.707031 68.078125 16.78125 C 68.476562 16.84375 68.972656 16.875 69.570312 16.875 C 70.410156 16.875 71.066406 16.875 71.542969 16.875 C 72.03125 16.859375 72.460938 16.84375 72.828125 16.828125 L 72.414062 18.824219 C 72.015625 18.839844 71.542969 18.847656 70.992188 18.847656 C 70.441406 18.863281 69.964844 18.871094 69.570312 18.871094 C 68.542969 18.871094 67.679688 18.777344 66.976562 18.59375 C 66.273438 18.410156 65.699219 18.105469 65.253906 17.675781 C 64.828125 17.25 64.515625 16.699219 64.316406 16.023438 C 64.132812 15.335938 64.039062 14.496094 64.039062 13.5 L 64.039062 12.285156 C 64.039062 11.292969 64.132812 10.457031 64.316406 9.785156 C 64.515625 9.097656 64.828125 8.539062 65.253906 8.109375 C 65.699219 7.683594 66.273438 7.375 66.976562 7.191406 C 67.679688 7.007812 68.542969 6.917969 69.570312 6.917969 C 70.011719 6.917969 70.515625 6.925781 71.082031 6.941406 C 71.664062 6.941406 72.230469 6.957031 72.78125 6.984375 L 72.367188 8.980469 C 71.742188 8.953125 71.210938 8.9375 70.785156 8.9375 C 70.355469 8.921875 69.949219 8.914062 69.570312 8.914062 Z M 69.570312 8.914062 "/>
<path style=" stroke:none;fill-rule:nonzero;fill:rgb(29.411765%,30.980392%,34.509804%);fill-opacity:1;" d="M 83.328125 18.019531 C 84.078125 18.019531 84.699219 17.953125 85.1875 17.8125 C 85.675781 17.660156 86.058594 17.417969 86.335938 17.078125 C 86.609375 16.742188 86.800781 16.308594 86.910156 15.773438 C 87.015625 15.222656 87.070312 14.546875 87.070312 13.753906 L 87.070312 12.054688 C 87.070312 11.167969 86.992188 10.449219 86.839844 9.898438 C 86.6875 9.332031 86.457031 8.90625 86.152344 8.613281 C 85.847656 8.308594 85.449219 8.101562 84.957031 7.996094 C 84.484375 7.886719 83.925781 7.835938 83.285156 7.835938 C 82.609375 7.835938 82.03125 7.886719 81.539062 7.996094 C 81.066406 8.101562 80.675781 8.308594 80.371094 8.613281 C 80.066406 8.921875 79.835938 9.347656 79.683594 9.898438 C 79.53125 10.449219 79.453125 11.167969 79.453125 12.054688 L 79.453125 14.234375 C 79.453125 14.984375 79.542969 15.605469 79.726562 16.09375 C 79.910156 16.582031 80.171875 16.972656 80.507812 17.261719 C 80.84375 17.539062 81.25 17.738281 81.722656 17.859375 C 82.214844 17.96875 82.75 18.019531 83.328125 18.019531 Z M 83.308594 6.664062 C 84.117188 6.664062 84.835938 6.742188 85.464844 6.894531 C 86.105469 7.046875 86.640625 7.324219 87.070312 7.71875 C 87.511719 8.117188 87.847656 8.667969 88.078125 9.371094 C 88.308594 10.058594 88.421875 10.953125 88.421875 12.054688 L 88.421875 13.753906 C 88.421875 14.792969 88.324219 15.65625 88.125 16.347656 C 87.925781 17.035156 87.613281 17.59375 87.183594 18.019531 C 86.769531 18.449219 86.242188 18.746094 85.601562 18.914062 C 84.957031 19.097656 84.203125 19.191406 83.328125 19.191406 C 82.425781 19.191406 81.640625 19.0625 80.96875 18.800781 C 80.308594 18.523438 79.804688 18.121094 79.453125 17.585938 L 79.453125 22.839844 L 78.121094 22.839844 L 78.121094 12.054688 C 78.121094 11 78.238281 10.128906 78.464844 9.441406 C 78.695312 8.738281 79.023438 8.1875 79.453125 7.789062 C 79.894531 7.375 80.4375 7.085938 81.082031 6.917969 C 81.722656 6.75 82.464844 6.664062 83.308594 6.664062 Z M 83.308594 6.664062 "/>
<path style=" stroke:none;fill-rule:nonzero;fill:rgb(29.411765%,30.980392%,34.509804%);fill-opacity:1;" d="M 91.273438 1.777344 L 92.605469 1.777344 L 92.605469 18.824219 L 91.273438 18.824219 Z M 91.273438 1.777344 "/>
<path style=" stroke:none;fill-rule:nonzero;fill:rgb(29.411765%,30.980392%,34.509804%);fill-opacity:1;" d="M 96.621094 15.289062 C 96.621094 15.703125 96.667969 16.054688 96.757812 16.347656 C 96.867188 16.636719 97.035156 16.882812 97.265625 17.078125 C 97.507812 17.277344 97.828125 17.425781 98.226562 17.515625 C 98.640625 17.609375 99.152344 17.652344 99.765625 17.652344 L 103.664062 17.652344 L 103.664062 14.902344 C 103.664062 14.410156 103.582031 14.011719 103.414062 13.707031 C 103.257812 13.386719 103.03125 13.132812 102.722656 12.949219 C 102.417969 12.765625 102.035156 12.636719 101.578125 12.5625 C 101.132812 12.484375 100.621094 12.445312 100.039062 12.445312 L 99.742188 12.445312 C 98.609375 12.445312 97.808594 12.636719 97.332031 13.019531 C 96.859375 13.386719 96.621094 14.042969 96.621094 14.992188 Z M 104.949219 17.515625 C 104.949219 18.035156 104.851562 18.386719 104.652344 18.570312 C 104.46875 18.738281 104.09375 18.824219 103.527344 18.824219 L 99.765625 18.824219 C 98.1875 18.824219 97.058594 18.546875 96.371094 17.996094 C 95.679688 17.445312 95.335938 16.550781 95.335938 15.3125 L 95.335938 14.992188 C 95.335938 13.707031 95.679688 12.773438 96.371094 12.195312 C 97.074219 11.613281 98.203125 11.320312 99.765625 11.320312 C 100.820312 11.320312 101.660156 11.421875 102.289062 11.621094 C 102.914062 11.820312 103.375 12.09375 103.664062 12.445312 L 103.664062 11.070312 C 103.664062 10.519531 103.609375 10.058594 103.503906 9.691406 C 103.398438 9.3125 103.207031 9.011719 102.929688 8.796875 C 102.65625 8.570312 102.273438 8.410156 101.785156 8.316406 C 101.292969 8.210938 100.675781 8.15625 99.925781 8.15625 C 99.359375 8.15625 98.761719 8.164062 98.136719 8.179688 C 97.507812 8.179688 96.941406 8.195312 96.4375 8.226562 L 96.691406 7.03125 C 97.117188 7.015625 97.625 7.007812 98.203125 7.007812 C 98.785156 6.992188 99.359375 6.984375 99.925781 6.984375 C 100.84375 6.984375 101.617188 7.0625 102.242188 7.214844 C 102.882812 7.351562 103.40625 7.582031 103.800781 7.902344 C 104.199219 8.210938 104.492188 8.613281 104.675781 9.121094 C 104.859375 9.609375 104.949219 10.214844 104.949219 10.933594 Z M 104.949219 17.515625 "/>
<path style=" stroke:none;fill-rule:nonzero;fill:rgb(29.411765%,30.980392%,34.509804%);fill-opacity:1;" d="M 108.253906 4.050781 L 109.585938 3.796875 L 109.585938 7.03125 L 114.425781 7.03125 L 114.171875 8.179688 L 109.585938 8.179688 L 109.585938 14.808594 C 109.585938 15.375 109.625 15.839844 109.699219 16.207031 C 109.777344 16.574219 109.914062 16.867188 110.113281 17.078125 C 110.328125 17.292969 110.609375 17.445312 110.960938 17.539062 C 111.328125 17.617188 111.804688 17.652344 112.382812 17.652344 L 114.152344 17.652344 L 113.898438 18.824219 L 112.382812 18.824219 C 111.605469 18.824219 110.945312 18.769531 110.410156 18.664062 C 109.890625 18.539062 109.472656 18.335938 109.148438 18.042969 C 108.828125 17.738281 108.597656 17.332031 108.460938 16.828125 C 108.324219 16.308594 108.253906 15.640625 108.253906 14.832031 Z M 108.253906 4.050781 "/>
<path style=" stroke:none;fill-rule:nonzero;fill:rgb(29.411765%,30.980392%,34.509804%);fill-opacity:1;" d="M 121.769531 2.902344 C 121.066406 2.902344 120.476562 2.957031 120.003906 3.0625 C 119.542969 3.15625 119.167969 3.355469 118.878906 3.660156 C 118.601562 3.949219 118.40625 4.371094 118.28125 4.921875 C 118.175781 5.457031 118.121094 6.160156 118.121094 7.03125 L 122.777344 7.03125 L 122.527344 8.179688 L 118.121094 8.179688 L 118.121094 18.824219 L 116.789062 18.824219 L 116.789062 6.871094 C 116.789062 5.90625 116.875 5.097656 117.042969 4.4375 C 117.226562 3.78125 117.507812 3.253906 117.890625 2.855469 C 118.289062 2.445312 118.792969 2.152344 119.40625 1.984375 C 120.035156 1.816406 120.789062 1.730469 121.675781 1.730469 C 121.96875 1.730469 122.273438 1.730469 122.59375 1.730469 C 122.917969 1.730469 123.3125 1.746094 123.789062 1.777344 L 123.535156 2.949219 C 123.230469 2.933594 122.910156 2.925781 122.570312 2.925781 C 122.234375 2.910156 121.96875 2.902344 121.769531 2.902344 Z M 121.769531 2.902344 "/>
<path style=" stroke:none;fill-rule:nonzero;fill:rgb(29.411765%,30.980392%,34.509804%);fill-opacity:1;" d="M 128.707031 6.664062 C 129.609375 6.664062 130.390625 6.757812 131.046875 6.941406 C 131.707031 7.109375 132.242188 7.398438 132.652344 7.8125 C 133.082031 8.226562 133.394531 8.78125 133.59375 9.488281 C 133.792969 10.175781 133.894531 11.03125 133.894531 12.054688 L 133.894531 13.800781 C 133.894531 14.824219 133.792969 15.679688 133.59375 16.367188 C 133.394531 17.058594 133.082031 17.617188 132.652344 18.042969 C 132.242188 18.457031 131.707031 18.746094 131.046875 18.914062 C 130.390625 19.097656 129.609375 19.191406 128.707031 19.191406 C 127.804688 19.191406 127.027344 19.097656 126.367188 18.914062 C 125.710938 18.746094 125.167969 18.457031 124.738281 18.042969 C 124.328125 17.617188 124.019531 17.058594 123.820312 16.367188 C 123.621094 15.679688 123.523438 14.824219 123.523438 13.800781 L 123.523438 12.054688 C 123.523438 11.03125 123.621094 10.175781 123.820312 9.488281 C 124.019531 8.796875 124.328125 8.246094 124.738281 7.835938 C 125.167969 7.40625 125.710938 7.109375 126.367188 6.941406 C 127.027344 6.757812 127.804688 6.664062 128.707031 6.664062 Z M 132.539062 12.054688 C 132.539062 11.214844 132.46875 10.519531 132.332031 9.96875 C 132.195312 9.417969 131.972656 8.988281 131.667969 8.683594 C 131.363281 8.363281 130.964844 8.140625 130.476562 8.019531 C 129.984375 7.894531 129.394531 7.835938 128.707031 7.835938 C 128.003906 7.835938 127.410156 7.894531 126.917969 8.019531 C 126.445312 8.125 126.054688 8.339844 125.75 8.660156 C 125.441406 8.964844 125.222656 9.394531 125.082031 9.945312 C 124.945312 10.480469 124.878906 11.183594 124.878906 12.054688 L 124.878906 13.800781 C 124.878906 14.65625 124.945312 15.359375 125.082031 15.910156 C 125.222656 16.445312 125.441406 16.875 125.75 17.195312 C 126.054688 17.5 126.445312 17.714844 126.917969 17.835938 C 127.410156 17.960938 128.003906 18.019531 128.707031 18.019531 C 129.410156 18.019531 130 17.96875 130.476562 17.859375 C 130.964844 17.738281 131.363281 17.523438 131.667969 17.21875 C 131.972656 16.894531 132.195312 16.46875 132.332031 15.933594 C 132.46875 15.382812 132.539062 14.671875 132.539062 13.800781 Z M 132.539062 12.054688 "/>
<path style=" stroke:none;fill-rule:nonzero;fill:rgb(29.411765%,30.980392%,34.509804%);fill-opacity:1;" d="M 136.730469 18.824219 L 136.730469 11.046875 C 136.730469 10.25 136.8125 9.59375 136.980469 9.074219 C 137.164062 8.554688 137.433594 8.140625 137.785156 7.835938 C 138.136719 7.511719 138.574219 7.292969 139.09375 7.167969 C 139.613281 7.046875 140.21875 6.984375 140.90625 6.984375 C 141.410156 6.984375 141.890625 6.984375 142.351562 6.984375 C 142.808594 6.984375 143.167969 6.992188 143.429688 7.007812 L 143.175781 8.203125 C 142.976562 8.1875 142.65625 8.179688 142.214844 8.179688 C 141.785156 8.164062 141.371094 8.15625 140.972656 8.15625 C 140.394531 8.15625 139.910156 8.210938 139.527344 8.316406 C 139.160156 8.410156 138.871094 8.570312 138.65625 8.796875 C 138.441406 9.027344 138.289062 9.339844 138.199219 9.738281 C 138.105469 10.121094 138.0625 10.609375 138.0625 11.207031 L 138.0625 18.824219 Z M 136.730469 18.824219 "/>
<path style=" stroke:none;fill-rule:nonzero;fill:rgb(29.411765%,30.980392%,34.509804%);fill-opacity:1;" d="M 145.109375 18.824219 L 145.109375 10.519531 C 145.109375 9.128906 145.484375 8.140625 146.234375 7.558594 C 146.996094 6.964844 148.0625 6.664062 149.421875 6.664062 C 150.414062 6.664062 151.21875 6.824219 151.832031 7.144531 C 152.441406 7.46875 152.871094 7.894531 153.117188 8.429688 C 153.375 7.894531 153.820312 7.46875 154.445312 7.144531 C 155.074219 6.824219 155.859375 6.664062 156.808594 6.664062 C 157.480469 6.664062 158.085938 6.734375 158.621094 6.871094 C 159.15625 6.992188 159.609375 7.207031 159.976562 7.511719 C 160.339844 7.804688 160.625 8.195312 160.824219 8.683594 C 161.023438 9.171875 161.121094 9.785156 161.121094 10.519531 L 161.121094 18.824219 L 159.792969 18.824219 L 159.792969 10.632812 C 159.792969 9.59375 159.554688 8.867188 159.078125 8.453125 C 158.621094 8.042969 157.863281 7.835938 156.808594 7.835938 C 155.769531 7.835938 155.003906 8.035156 154.515625 8.429688 C 154.039062 8.828125 153.804688 9.53125 153.804688 10.542969 L 153.804688 18.824219 L 152.449219 18.824219 L 152.449219 10.632812 C 152.449219 9.59375 152.207031 8.867188 151.714844 8.453125 C 151.242188 8.042969 150.476562 7.835938 149.421875 7.835938 C 148.304688 7.835938 147.523438 8.0625 147.082031 8.523438 C 146.652344 8.964844 146.4375 9.675781 146.4375 10.65625 L 146.4375 18.824219 Z M 145.109375 18.824219 "/>
</g>
</svg>
