<?xml version="1.0" standalone="no"?>
<!DOCTYPE svg PUBLIC "-//W3C//DTD SVG 20010904//EN"
 "http://www.w3.org/TR/2001/REC-SVG-20010904/DTD/svg10.dtd">
<svg version="1.0" xmlns="http://www.w3.org/2000/svg"
 width="265.000000pt" height="65.000000pt" viewBox="0 0 265.000000 65.000000"
 preserveAspectRatio="xMidYMid meet">
<metadata>
Created by potrace 1.16, written by Peter Selinger 2001-2019
</metadata>
<g transform="translate(0.000000,65.000000) scale(0.100000,-0.100000)"
fill="#000000" stroke="none">
<path d="M217 492 c-14 -15 -17 -42 -17 -158 0 -148 4 -164 47 -164 18 0 176
70 191 84 2 2 0 15 -4 30 -4 18 -13 26 -28 26 -11 0 -28 5 -36 10 -11 7 -8 10
16 10 20 0 34 6 38 16 9 23 9 22 -26 27 l-33 4 32 1 c20 1 36 9 42 20 9 16 -2
24 -90 65 -56 26 -104 47 -108 47 -5 0 -15 -8 -24 -18z"/>
<path d="M758 462 c-84 -41 -96 -49 -87 -64 6 -11 23 -19 42 -19 30 -2 30 -2
5 -6 -20 -3 -28 -10 -28 -24 0 -15 7 -19 33 -19 24 0 28 -3 17 -10 -8 -5 -24
-10 -35 -10 -11 0 -25 -11 -32 -25 -11 -25 -10 -27 78 -70 91 -46 126 -54 147
-33 8 8 12 57 12 154 0 116 -3 145 -16 158 -21 22 -26 21 -136 -32z"/>
<path d="M1280 421 c-5 -11 -10 -28 -10 -38 0 -38 17 -48 92 -53 70 -5 73 -6
73 -30 0 -24 -2 -25 -82 -28 -65 -2 -83 -6 -83 -17 0 -12 17 -15 83 -15 94 0
120 12 120 54 0 44 -26 60 -101 66 -59 4 -67 8 -70 26 -4 26 19 34 101 34 31
0 57 5 57 10 0 6 -35 10 -85 10 -73 0 -86 -3 -95 -19z"/>
<path d="M1622 428 c-14 -14 -16 -57 -2 -78 6 -10 32 -17 82 -20 70 -5 73 -6
73 -30 0 -24 -2 -25 -82 -28 -65 -2 -83 -6 -83 -17 0 -12 17 -15 81 -15 99 0
119 9 119 55 0 47 -29 65 -103 65 -44 0 -59 4 -64 16 -10 28 25 44 94 44 35 0
63 4 63 10 0 15 -163 13 -178 -2z"/>
</g>
</svg>
